<?xml version="1.0" encoding="utf-8"?>
<!-- Generator: Adobe Illustrator 19.0.0, SVG Export Plug-In . SVG Version: 6.00 Build 0)  -->
<svg version="1.1" id="圖層_1" xmlns="http://www.w3.org/2000/svg" xmlns:xlink="http://www.w3.org/1999/xlink" x="0px" y="0px"
	 viewBox="-71 83 30 30" style="enable-background:new -71 83 30 30;" xml:space="preserve">
<style type="text/css">
	.st0{fill:#FFFFFF;}
</style>
<title>Group</title>
<desc>Created with Sketch.</desc>
<g>
	<path class="st0" d="M-53.2,97.3c1.3,0,2.4-1,2.4-2.3s-1.1-2.3-2.4-2.3s-2.4,1-2.4,2.3S-54.5,97.3-53.2,97.3z M-53.2,94
		c0.6,0,1,0.4,1,1s-0.5,1-1,1s-1-0.4-1-1S-53.8,94-53.2,94z"/>
	<path class="st0" d="M-48.1,101.6v-4.4h0V92c0-0.6-0.3-1.1-0.7-1.5c-0.4-0.3-0.9-0.5-1.3-0.5h-12.2c-1.1,0-2,0.9-2,2v12
		c0,1.1,0.9,2,2,2h12.2c1.1,0,2-0.9,2-2v-0.6c0,0,0,0,0,0L-48.1,101.6L-48.1,101.6z M-62.4,91.3h12.2c0.2,0,0.3,0.1,0.4,0.2
		c0.1,0.1,0.2,0.3,0.2,0.5v5.1v4.4v0.2l-3.6-3.5c-0.1-0.1-0.3-0.2-0.5-0.2c-0.2,0-0.4,0.1-0.5,0.2l-1.5,1.7l-2.9-3.7
		c-0.1-0.2-0.3-0.3-0.5-0.3h0c-0.2,0-0.4,0.1-0.5,0.3l-3.5,4.6V92C-63.1,91.6-62.8,91.3-62.4,91.3z M-50.1,104.7h-12.2
		c-0.4,0-0.7-0.3-0.7-0.7v-0.9l4.1-5.3l2.5,3.2l-1.1,1.3c-0.2,0.3-0.2,0.7,0.1,0.9c0.3,0.2,0.7,0.2,1-0.1l3-3.5l4,4v0.4
		C-49.5,104.4-49.8,104.7-50.1,104.7z"/>
</g>
</svg>
