<svg xmlns="http://www.w3.org/2000/svg" viewBox="0 0 222.9 51" enable-background="new 0 0 222.9 51"><style type="text/css">.st0{enable-background:new ;} .st1{fill:#FFFFFF;}</style><g id="Artboard-1_1_"><g class="st0"><path class="st1" d="M169.4 27.9v-14.5h1.9v2c.8-1.5 2-2.2 3.5-2.2 1.3 0 2.3.5 3 1.4s1.1 2.2 1.1 3.8c0 1.8-.4 3.2-1.2 4.3s-1.9 1.6-3.3 1.6c-1.3 0-2.3-.5-3.1-1.4v5.1h-1.9zm1.9-6.4c1 .9 1.9 1.3 2.8 1.3 1.8 0 2.8-1.4 2.8-4.2 0-2.5-.8-3.7-2.5-3.7-1.1 0-2.1.6-3.1 1.7v4.9zM181.5 24v-10.6h1.9v2c.8-1.5 1.9-2.2 3.3-2.2h.6v1.8c-.3-.1-.6-.2-.9-.2-1.2 0-2.2.7-3.1 2.2v7h-1.8z"/></g><path class="st1" d="M193.3 24.2c-1.5 0-2.7-.5-3.6-1.5-.9-1-1.4-2.4-1.4-4 0-1.7.5-3.1 1.4-4s2.1-1.5 3.7-1.5 2.8.5 3.7 1.5 1.4 2.3 1.4 4c0 1.7-.5 3.1-1.4 4.1-.9.9-2.2 1.4-3.8 1.4zm0-1.4c2 0 3.1-1.4 3.1-4.1 0-2.7-1-4.1-3-4.1s-3 1.4-3 4.1c0 2.7 1 4.1 2.9 4.1z"/></g><g id="圖層_1"><title>VERPIX</title><desc>Created with Sketch.</desc><g class="st0" id="Group_1_"><path class="st1" d="M54.6 39l-9.8-26h3.7l8.1 21.3 7.8-21.3h3.2l-9.4 26h-3.6zM71 39v-26h14.5v2.8h-10.8v8.3h9.1v2.7h-9.1v9.4h11.6v2.8h-15.3zM90.5 39v-26h7.9c2.5 0 4.4.6 5.7 1.7s2 2.7 2 4.8c0 3.5-1.8 5.9-5.3 7.4l8.7 12.2h-4.5l-7.4-11h-3.4v11h-3.7zm3.7-13.8h1.2c4.6 0 7-1.8 7-5.5 0-2.7-1.9-4-5.8-4h-2.3v9.5zM113.3 39v-26h7.1c3.1 0 5.4.5 6.8 1.6s2.1 2.8 2.1 5.2c0 2.8-.9 4.9-2.8 6.5s-4.5 2.4-7.8 2.4h-1.7v10.3h-3.7zm3.7-13.1h1.5c2.2 0 3.9-.5 5.1-1.5s1.8-2.4 1.8-4.3c0-1.6-.5-2.7-1.4-3.3s-2.5-1-4.7-1h-2.3v10.1zM133.2 39v-26h3.7v26h-3.7zM140.5 39l8.6-13.1-8.2-13h4.4l6.3 9.8 6.6-9.8h3.5l-8.3 12.6 8.5 13.4h-4.4l-6.6-10.3-6.9 10.4h-3.5z"/></g></g></svg>