<?xml version="1.0" encoding="utf-8"?>
<!-- Generator: Adobe Illustrator 19.0.0, SVG Export Plug-In . SVG Version: 6.00 Build 0)  -->
<svg version="1.1" id="圖層_1" xmlns="http://www.w3.org/2000/svg" xmlns:xlink="http://www.w3.org/1999/xlink" x="0px" y="0px"
	 viewBox="-64 76 30 30" style="enable-background:new -64 76 30 30;" xml:space="preserve">
<style type="text/css">
	.st0{fill:#FFFFFF;}
</style>
<title>Group</title>
<desc>Created with Sketch.</desc>
<g id="Group">
	<path id="Fill-158" class="st0" d="M-56.8,91.4c0-1.3,1.2-2.4,2.6-2.4s2.6,1.1,2.6,2.4s-1.2,2.4-2.6,2.4S-56.8,92.6-56.8,91.4z
		 M-55.5,91.4c0,0.7,0.6,1.2,1.3,1.2s1.3-0.5,1.3-1.2s-0.6-1.2-1.3-1.2C-54.9,90.1-55.5,90.6-55.5,91.4z"/>
	<path id="Fill-158-Copy" class="st0" d="M-44.2,98.6c-1.6,0-3-1.2-3-2.8c0-1.5,1.3-2.8,3-2.8s3,1.2,3,2.8S-42.6,98.6-44.2,98.6z
		 M-44.2,94.4c-0.8,0-1.5,0.6-1.5,1.4s0.7,1.4,1.5,1.4s1.5-0.6,1.5-1.4S-43.4,94.4-44.2,94.4z"/>
	<path id="Fill-159" class="st0" d="M-44.9,87.6c-1.2,0-2.2-0.9-2.2-2.1s1-2.1,2.2-2.1s2.2,0.9,2.2,2.1S-43.7,87.6-44.9,87.6z
		 M-44.9,84.8c-0.4,0-0.7,0.3-0.7,0.7s0.3,0.7,0.7,0.7s0.7-0.3,0.7-0.7S-44.5,84.8-44.9,84.8z"/>
	<path id="Fill-160" class="st0" d="M-53.1,90.4c-0.2-0.3-0.1-0.8,0.2-1l6.3-3.9c0.3-0.2,0.7-0.1,0.9,0.2c0.2,0.3,0.1,0.8-0.2,1
		l-6.3,3.9c-0.1,0.1-0.2,0.1-0.4,0.1C-52.7,90.8-52.9,90.6-53.1,90.4L-53.1,90.4z"/>
	<path id="Fill-161" class="st0" d="M-46.6,95.9c-0.1,0-0.2,0-0.3-0.1l-5.9-2.8c-0.3-0.2-0.5-0.6-0.3-0.9c0.2-0.4,0.6-0.5,0.9-0.3
		l5.9,2.8c0.3,0.2,0.5,0.6,0.3,0.9C-46.1,95.8-46.4,95.9-46.6,95.9"/>
</g>
</svg>
