<?xml version="1.0" encoding="utf-8"?>
<!-- Generator: Adobe Illustrator 19.0.0, SVG Export Plug-In . SVG Version: 6.00 Build 0)  -->
<svg version="1.1" id="圖層_1" xmlns="http://www.w3.org/2000/svg" xmlns:xlink="http://www.w3.org/1999/xlink" x="0px" y="0px"
	 viewBox="-72 82 30 30" style="enable-background:new -72 82 30 30;" xml:space="preserve">
<style type="text/css">
	.st0{fill:#B8BABC;}
</style>
<title>Group</title>
<desc>Created with Sketch.</desc>
<g id="Page-1">
	<g id="Artboard-1" transform="translate(-1158.000000, -348.000000)">
		<g id="Group-4-Copy-2" transform="translate(953.000000, 335.000000)">
			<g id="Group" transform="translate(205.661569, 13.000000)">
				<path id="Fill-221" class="st0" d="M-52.5,94.9h-10.4c-0.8,0-1.5-0.6-1.5-1.4v-0.7c0-1.1,1-2.1,2.2-2.1h8.9
					c1.2,0,2.2,0.9,2.2,2.1v0.7C-51,94.3-51.7,94.9-52.5,94.9L-52.5,94.9z M-62.1,92.1c-0.4,0-0.7,0.3-0.7,0.7v0.7h10.4l0-0.7
					c0-0.4-0.3-0.7-0.7-0.7H-62.1L-62.1,92.1z"/>
				<path id="Fill-222" class="st0" d="M-61.4,105.3c-1.2,0-2.2-0.9-2.2-2.1v-9c0-0.4,0.3-0.7,0.7-0.7s0.7,0.3,0.7,0.7v9
					c0,0.4,0.3,0.7,0.7,0.7h7.4c0.4,0,0.7-0.3,0.7-0.7v-8.3c0-0.4,0.3-0.7,0.7-0.7s0.7,0.3,0.7,0.7v8.3c0,1.1-1,2.1-2.2,2.1H-61.4z"
					/>
				<path id="Fill-223" class="st0" d="M-60.6,92.1c-0.4,0-0.7-0.3-0.7-0.7v-1.4c0-0.8,0.7-1.4,1.5-1.4h4.4c0.8,0,1.5,0.6,1.5,1.4
					v1.3c0,0.4-0.3,0.7-0.7,0.7s-0.7-0.3-0.7-0.7v-1.3h-4.4v1.4C-59.9,91.8-60.2,92.1-60.6,92.1"/>
				<path id="Fill-224" class="st0" d="M-59.9,102.4v-6c0-0.3,0.3-0.5,0.6-0.5c0.4,0,0.6,0.2,0.6,0.5v6c0,0.3-0.3,0.5-0.6,0.5
					C-59.6,103-59.9,102.7-59.9,102.4z"/>
				<path id="Fill-225" class="st0" d="M-56.3,103c-0.4,0-0.6-0.2-0.6-0.5v-6c0-0.3,0.3-0.5,0.6-0.5c0.4,0,0.6,0.2,0.6,0.5v6
					C-55.6,102.7-55.9,103-56.3,103"/>
			</g>
		</g>
	</g>
</g>
</svg>
