<?xml version="1.0" encoding="utf-8"?>
<!-- Generator: Adobe Illustrator 19.0.0, SVG Export Plug-In . SVG Version: 6.00 Build 0)  -->
<svg version="1.1" id="圖層_1" xmlns="http://www.w3.org/2000/svg" xmlns:xlink="http://www.w3.org/1999/xlink" x="0px" y="0px"
	 viewBox="-71 82 30 30" style="enable-background:new -71 82 30 30;" xml:space="preserve">
<style type="text/css">
	.st0{fill:#B8BABC;}
</style>
<title>Imported Layers</title>
<desc>Created with Sketch.</desc>
<g id="Page-1">
	<g id="Artboard-1" transform="translate(-1118.000000, -37.000000)">
		<g id="Group-2" transform="translate(1101.000000, 30.000000)">
			<path id="Imported-Layers" class="st0" d="M-35.3,105.7L-35.3,105.7l4.1-4.1l-4.5-4.5l-3,3l-0.7-0.7l3.1-3.1l-1.1-1.1l-4.1,4.1
				l1.8,1.8l-6.4,6.4l-0.6,5.2l0.9-0.1h13.7v-1.5h-8.5L-35.3,105.7L-35.3,105.7z M-35.7,99.2l2.4,2.4l-2,2l-2.4-2.4L-35.7,99.2
				L-35.7,99.2z M-44.8,108.3l6.1-6l2.4,2.4l-6.1,6l-2.8,0.3L-44.8,108.3L-44.8,108.3z"/>
		</g>
	</g>
</g>
</svg>
