<?xml version="1.0" encoding="utf-8"?>
<!-- Generator: Adobe Illustrator 19.0.0, SVG Export Plug-In . SVG Version: 6.00 Build 0)  -->
<svg version="1.1" id="圖層_1" xmlns="http://www.w3.org/2000/svg" xmlns:xlink="http://www.w3.org/1999/xlink" x="0px" y="0px"
	 viewBox="-71 83 30 30" style="enable-background:new -71 83 30 30;" xml:space="preserve">
<style type="text/css">
	.st0{fill:#B8BABC;}
</style>
<title>Group</title>
<desc>Created with Sketch.</desc>
<g id="Group">
	<path id="Fill-158" class="st0" d="M-63.8,98.4c0-1.3,1.2-2.4,2.6-2.4s2.6,1.1,2.6,2.4s-1.2,2.4-2.6,2.4S-63.8,99.6-63.8,98.4z
		 M-62.5,98.4c0,0.7,0.6,1.2,1.3,1.2c0.7,0,1.3-0.5,1.3-1.2s-0.6-1.2-1.3-1.2C-61.9,97.1-62.5,97.6-62.5,98.4z"/>
	<path id="Fill-158-Copy" class="st0" d="M-51.2,105.6c-1.6,0-3-1.2-3-2.8c0-1.5,1.3-2.8,3-2.8s3,1.2,3,2.8
		C-48.2,104.4-49.6,105.6-51.2,105.6z M-51.2,101.4c-0.8,0-1.5,0.6-1.5,1.4s0.7,1.4,1.5,1.4s1.5-0.6,1.5-1.4S-50.4,101.4-51.2,101.4
		z"/>
	<path id="Fill-159" class="st0" d="M-51.9,94.6c-1.2,0-2.2-0.9-2.2-2.1s1-2.1,2.2-2.1s2.2,0.9,2.2,2.1S-50.7,94.6-51.9,94.6z
		 M-51.9,91.8c-0.4,0-0.7,0.3-0.7,0.7s0.3,0.7,0.7,0.7s0.7-0.3,0.7-0.7S-51.5,91.8-51.9,91.8z"/>
	<path id="Fill-160" class="st0" d="M-60.1,97.4c-0.2-0.3-0.1-0.8,0.2-1l6.3-3.9c0.3-0.2,0.7-0.1,0.9,0.2c0.2,0.3,0.1,0.8-0.2,1
		l-6.3,3.9c-0.1,0.1-0.2,0.1-0.4,0.1C-59.7,97.8-59.9,97.6-60.1,97.4L-60.1,97.4z"/>
	<path id="Fill-161" class="st0" d="M-53.6,102.9c-0.1,0-0.2,0-0.3-0.1l-5.9-2.8c-0.3-0.2-0.5-0.6-0.3-0.9c0.2-0.4,0.6-0.5,0.9-0.3
		l5.9,2.8c0.3,0.2,0.5,0.6,0.3,0.9C-53.1,102.8-53.4,102.9-53.6,102.9"/>
</g>
</svg>
