<?xml version="1.0" encoding="utf-8"?>
<!-- Generator: Adobe Illustrator 19.0.0, SVG Export Plug-In . SVG Version: 6.00 Build 0)  -->
<svg version="1.1" id="圖層_1" xmlns="http://www.w3.org/2000/svg" xmlns:xlink="http://www.w3.org/1999/xlink" x="0px" y="0px"
	 viewBox="46.9 65 230.5 39.2" style="enable-background:new 46.9 65 230.5 39.2;" xml:space="preserve">
<style type="text/css">
	.st0{enable-background:new    ;}
	.st1{fill:#999999;}
</style>
<g>
	<g id="Artboard-1_1_">
		<g class="st0">
			<path class="st1" d="M233.8,87.5V65.7h2.8v3c1.2-2.3,3-3.3,5.3-3.3c2,0,3.5,0.8,4.5,2.1c1.1,1.4,1.7,3.3,1.7,5.7
				c0,2.7-0.6,4.8-1.8,6.4c-1.2,1.7-2.8,2.4-5,2.4c-1.9,0-3.4-0.8-4.7-2.1v7.6L233.8,87.5L233.8,87.5z M236.6,77.9
				c1.5,1.4,2.8,2,4.2,2c2.7,0,4.2-2.1,4.2-6.3c0-3.8-1.2-5.5-3.8-5.5c-1.7,0-3.2,0.9-4.7,2.5v7.3H236.6z M251.9,81.6V65.7h2.8v3
				c1.2-2.3,2.8-3.3,5-3.3h0.9v2.7c-0.5-0.1-0.9-0.3-1.3-0.3c-1.8,0-3.3,1-4.7,3.3v10.5H251.9z"/>
		</g>
		<path class="st1" d="M269.6,81.9c-2.3,0-4.1-0.8-5.4-2.3c-1.3-1.5-2.1-3.6-2.1-6c0-2.5,0.8-4.6,2.1-6c1.3-1.3,3.2-2.3,5.5-2.3
			c2.4,0,4.2,0.8,5.6,2.3s2.1,3.5,2.1,6c0,2.6-0.8,4.7-2.1,6.2C274,81.1,272,81.9,269.6,81.9L269.6,81.9z M269.6,79.8
			c3,0,4.7-2.1,4.7-6.2c0-4-1.5-6.1-4.5-6.1s-4.5,2.1-4.5,6.1C265.3,77.7,266.8,79.8,269.6,79.8z"/>
	</g>
	<g id="圖層_1_1_">
		<title>VERPIX</title>
		<desc>Created with Sketch.</desc>
		<g id="Group_1_" class="st0">
			<path class="st1" d="M61.6,104.1l-14.7-39h5.6l12.1,32l11.7-32h4.8l-14.1,39H61.6z M86.2,104.1v-39H108v4.2H91.8v12.4h13.6v4.1
				H91.8v14.1h17.4v4.2L86.2,104.1L86.2,104.1z M115.4,104.1v-39h11.8c3.8,0,6.6,0.9,8.6,2.5c1.9,1.7,3,4.1,3,7.2
				c0,5.3-2.7,8.9-8,11.1l13,18.3H137l-11.1-16.5h-5.1v16.5h-5.5L115.4,104.1z M121,83.4h1.8c6.9,0,10.5-2.7,10.5-8.3
				c0-4-2.9-6-8.7-6h-3.4v14.3H121z M149.6,104.1v-39h10.7c4.6,0,8.1,0.8,10.2,2.4c2.1,1.6,3.2,4.2,3.2,7.8c0,4.2-1.3,7.3-4.2,9.8
				c-2.9,2.4-6.8,3.6-11.7,3.6h-2.6v15.5L149.6,104.1L149.6,104.1z M155.2,84.5h2.3c3.3,0,5.9-0.8,7.6-2.3c1.8-1.5,2.7-3.6,2.7-6.5
				c0-2.4-0.8-4-2.1-4.9c-1.4-0.9-3.8-1.5-7-1.5h-3.5V84.5z M179.5,104.1v-39h5.5v39H179.5z M190.4,104.1l12.9-19.6L191,65h6.6
				l9.4,14.7l9.9-14.7h5.3l-12.4,18.9l12.8,20.1H216l-9.9-15.5l-10.3,15.6H190.4L190.4,104.1z"/>
		</g>
	</g>
</g>
</svg>
