<?xml version="1.0" encoding="UTF-8" standalone="no"?>
<svg width="20px" height="19px" viewBox="0 0 20 19" version="1.1" xmlns="http://www.w3.org/2000/svg" xmlns:xlink="http://www.w3.org/1999/xlink">
    <!-- Generator: Sketch 40.1 (33804) - http://www.bohemiancoding.com/sketch -->
    <title>Fill 228 + Fill 229 + Fill 230</title>
    <desc>Created with Sketch.</desc>
    <defs></defs>
    <g id="Page-1" stroke="none" stroke-width="1" fill="none" fill-rule="evenodd">
        <g id="Artboard-1" transform="translate(-307.000000, -180.000000)" fill="#FFFFFF">
            <g id="Fill-228-+-Fill-229-+-Fill-230" transform="translate(307.000000, 180.000000)">
                <path d="M2.5,19 C1.12166667,19 0,17.888087 0,16.5217391 C0,16.064913 1.66666667,16.064913 1.66666667,16.5217391 C1.66666667,16.9777391 2.04,17.3478261 2.5,17.3478261 L17.5,17.3478261 C17.96,17.3478261 18.3333333,16.9777391 18.3333333,16.5217391 L18.3333333,5.7826087 C18.3333333,5.3266087 17.96,4.95652174 17.5,4.95652174 L2.5,4.95652174 C2.04,4.95652174 1.66666667,5.3266087 1.66666667,5.7826087 L1.66666667,12.4598696 C1.66666667,12.9166957 0,12.9166957 0,12.4598696 L0,5.7826087 C0,4.41626087 1.12166667,3.30434783 2.5,3.30434783 L17.5,3.30434783 C18.8783333,3.30434783 20,4.41626087 20,5.7826087 L20,16.5217391 C20,17.888087 18.8783333,19 17.5,19 L2.5,19 Z" id="Fill-228"></path>
                <rect id="Rectangle-6" x="0" y="11.5652174" width="1.66666667" height="4.95652174"></rect>
                <path d="M18.2017544,9.08695652 L1.79824561,9.08695652 C1.26464912,9.08695652 0.833333333,8.71769565 0.833333333,8.26086957 C0.833333333,7.80404348 1.26464912,7.43478261 1.79824561,7.43478261 L18.2017544,7.43478261 C18.7353509,7.43478261 19.1666667,7.80404348 19.1666667,8.26086957 C19.1666667,8.71769565 18.7353509,9.08695652 18.2017544,9.08695652" id="Fill-229"></path>
                <path d="M14.1666667,6.60869565 C13.7058333,6.60869565 13.3333333,6.23943478 13.3333333,5.7826087 L13.3333333,2.47826087 C13.3333333,2.02226087 12.96,1.65217391 12.5,1.65217391 L7.5,1.65217391 C7.04,1.65217391 6.66666667,2.02226087 6.66666667,2.47826087 L6.66666667,5.7826087 C6.66666667,6.23943478 6.29416667,6.60869565 5.83333333,6.60869565 C5.3725,6.60869565 5,6.23943478 5,5.7826087 L5,2.47826087 C5,1.11191304 6.12166667,0 7.5,0 L12.5,0 C13.8783333,0 15,1.11191304 15,2.47826087 L15,5.7826087 C15,6.23943478 14.6275,6.60869565 14.1666667,6.60869565" id="Fill-230"></path>
            </g>
        </g>
    </g>
</svg>