<svg xmlns="http://www.w3.org/2000/svg" viewBox="0 0 149 150" enable-background="new 0 0 149 150"><style type="text/css">.st0{fill:#626262;}</style><path class="st0" d="M130.1 125.1c27.6-30.6 25.1-78-5.5-105.6-30.7-27.6-78-25.1-105.6 5.5-13.4 14.9-20.2 34-19.2 54 1 19.9 9.8 38.3 24.6 51.7 14.8 13.4 34 20.2 53.9 19.1 20.1-1.1 38.4-9.8 51.8-24.7zm-96.9-4.2c-12.2-11-19.5-26.2-20.3-42.6-.8-16.5 4.8-32.3 15.8-44.5 22.8-25.3 61.8-27.3 87.1-4.5 25.3 22.8 27.3 61.8 4.5 87.1-11 12.2-26.2 19.5-42.6 20.3-16.4.8-32.2-4.8-44.5-15.8z"/><ellipse class="st0" cx="74.6" cy="113.4" rx="11.4" ry="9.4"/><path class="st0" d="M87.3 37.1c-.5-5.8-5.7-10.5-12.7-10.5-7 0-11.7 4.8-12.7 10.5-1.3 7.2 11.9 59.4 11.9 59.4s14.4-49.9 13.5-59.4z"/></svg>